<svg width="20" height="20" viewBox="0 0 20 20" fill="none" xmlns="http://www.w3.org/2000/svg">
<path d="M10 1.04199C14.9476 1.04199 18.958 5.05245 18.958 10C18.958 14.9476 14.9476 18.958 10 18.958C5.05245 18.958 1.04199 14.9476 1.04199 10C1.04199 5.05245 5.05245 1.04199 10 1.04199ZM10 2.29199C5.74281 2.29199 2.29199 5.74281 2.29199 10C2.29199 14.2572 5.74281 17.708 10 17.708C14.2572 17.708 17.708 14.2572 17.708 10C17.708 5.74281 14.2572 2.29199 10 2.29199ZM10.0068 5.20801C10.3518 5.20818 10.6317 5.48809 10.6318 5.83301V8.23926C11.3599 8.49673 11.8818 9.19153 11.8818 10.0078C11.8818 10.2982 11.8151 10.573 11.6973 10.8184L12.9541 12.0752C13.1981 12.3192 13.1981 12.7149 12.9541 12.959C12.71 13.2031 12.3144 13.2031 12.0703 12.959L10.8125 11.7012C10.5685 11.8175 10.2951 11.8828 10.0068 11.8828C8.97136 11.8828 8.13194 11.0433 8.13184 10.0078C8.13184 9.19143 8.65359 8.49666 9.38184 8.23926V5.83301C9.38201 5.48798 9.66177 5.20801 10.0068 5.20801ZM10.0068 9.38281C9.66166 9.38281 9.38184 9.66263 9.38184 10.0078C9.38194 10.3529 9.66172 10.6328 10.0068 10.6328C10.1786 10.6327 10.3343 10.5634 10.4473 10.4512C10.561 10.338 10.6318 10.1809 10.6318 10.0078C10.6318 9.66274 10.3519 9.38299 10.0068 9.38281Z" fill="#0E5F4A"/>
</svg>
