<svg width="20" height="20" viewBox="0 0 20 20" fill="none" xmlns="http://www.w3.org/2000/svg">
<path fill-rule="evenodd" clip-rule="evenodd" d="M4.99967 1.0415C5.34485 1.0415 5.62467 1.32133 5.62467 1.6665V1.97142C6.57139 1.87481 7.73636 1.87482 9.15738 1.87484H10.842C12.263 1.87482 13.428 1.87481 14.3747 1.97142V1.6665C14.3747 1.32133 14.6545 1.0415 14.9997 1.0415C15.3449 1.0415 15.6247 1.32133 15.6247 1.6665V2.19549C16.2953 2.38557 16.8609 2.6945 17.3317 3.20347C17.98 3.90429 18.2681 4.78977 18.4061 5.89943C18.5414 6.98676 18.5414 8.38024 18.5413 10.1582V10.6748C18.5414 12.4528 18.5414 13.8462 18.4061 14.9336C18.2681 16.0432 17.98 16.9287 17.3317 17.6295C16.6771 18.3373 15.839 18.6582 14.7903 18.8107C13.7752 18.9582 12.4784 18.9582 10.842 18.9582H9.15738C7.52096 18.9582 6.22411 18.9582 5.20908 18.8107C4.16031 18.6582 3.32229 18.3373 2.66763 17.6295C2.01937 16.9287 1.73122 16.0432 1.59322 14.9336C1.45799 13.8463 1.458 12.4528 1.45801 10.6748V10.1582C1.458 8.38022 1.45799 6.98676 1.59322 5.89943C1.73122 4.78977 2.01937 3.90429 2.66763 3.20347C3.13842 2.6945 3.70404 2.38557 4.37467 2.19549V1.6665C4.37467 1.32133 4.6545 1.0415 4.99967 1.0415ZM4.99967 3.95817C4.71398 3.95817 4.47306 3.76648 4.39851 3.50471C4.05908 3.63976 3.80137 3.81864 3.58525 4.05227C3.19171 4.47773 2.95844 5.06097 2.83518 6.0415H17.1642C17.0409 5.06097 16.8076 4.47773 16.4141 4.05227C16.198 3.81864 15.9403 3.63976 15.6008 3.50471C15.5263 3.76648 15.2854 3.95817 14.9997 3.95817C14.6545 3.95817 14.3747 3.67835 14.3747 3.33317V3.22866C13.4905 3.12614 12.3477 3.12484 10.7913 3.12484H9.20801C7.65165 3.12484 6.50885 3.12614 5.62467 3.22866V3.33317C5.62467 3.67835 5.34485 3.95817 4.99967 3.95817ZM17.2589 7.2915H2.74044C2.70847 8.08891 2.70801 9.04217 2.70801 10.2025V10.6305C2.70801 12.4624 2.70915 13.7781 2.83366 14.7793C2.95652 15.7672 3.19008 16.3535 3.58525 16.7807C3.97402 17.201 4.49741 17.4441 5.38888 17.5737C6.30364 17.7066 7.50957 17.7082 9.20801 17.7082H10.7913C12.4898 17.7082 13.6957 17.7066 14.6105 17.5737C15.5019 17.4441 16.0253 17.201 16.4141 16.7807C16.8093 16.3535 17.0428 15.7672 17.1657 14.7793C17.2902 13.7781 17.2913 12.4624 17.2913 10.6305V10.2025C17.2913 9.04217 17.2909 8.08891 17.2589 7.2915Z" fill="#166A45"/>
</svg>
