<svg width="32" height="32" viewBox="0 0 32 32" fill="none" xmlns="http://www.w3.org/2000/svg">
<path d="M0 16C0 7.16344 7.16344 0 16 0C24.8366 0 32 7.16344 32 16C32 24.8366 24.8366 32 16 32C7.16344 32 0 24.8366 0 16Z" fill="#F3FCF6"/>
<path d="M17.71 7.04297C18.4587 7.04295 19.0835 7.04274 19.5791 7.10938C20.1021 7.17974 20.5746 7.3344 20.9541 7.71387C21.3335 8.09339 21.4883 8.56579 21.5586 9.08887C21.6139 9.50033 21.6205 10.0005 21.6221 10.5869C21.6863 10.6119 21.75 10.6391 21.8125 10.6709C22.322 10.9305 22.7364 11.3451 22.9961 11.8545C23.162 12.1801 23.2292 12.529 23.2607 12.915C23.2901 13.2742 23.291 13.713 23.291 14.2461C23.2942 14.2481 23.2976 14.2499 23.3008 14.252C23.7511 14.5349 24.132 14.9159 24.415 15.3662C24.7116 15.8381 24.839 16.3693 24.8994 16.9922C24.9582 17.5986 24.958 18.3548 24.958 19.3018V19.3672C24.958 20.314 24.9582 21.0704 24.8994 21.6768C24.839 22.2995 24.7115 22.8299 24.415 23.3018C24.132 23.7522 23.7512 24.133 23.3008 24.416C22.8289 24.7125 22.2986 24.84 21.6758 24.9004C21.0694 24.9592 20.313 24.959 19.3662 24.959H12.6338C11.687 24.959 10.9306 24.9592 10.3242 24.9004C9.70143 24.84 9.17106 24.7125 8.69922 24.416C8.24877 24.133 7.86802 23.7522 7.58496 23.3018C7.28848 22.8299 7.16102 22.2995 7.10059 21.6768C7.04178 21.0704 7.04198 20.314 7.04199 19.3672V19.3018C7.04198 18.3548 7.04177 17.5986 7.10059 16.9922C7.16101 16.3693 7.28843 15.8381 7.58496 15.3662C7.868 14.9159 8.24889 14.5349 8.69922 14.252C8.7022 14.2501 8.70502 14.248 8.70801 14.2461C8.70804 13.713 8.70992 13.2742 8.73926 12.915C8.7708 12.529 8.83801 12.1801 9.00391 11.8545C9.26358 11.3451 9.67802 10.9305 10.1875 10.6709C10.2497 10.6392 10.313 10.6118 10.377 10.5869C10.3785 10.0005 10.3861 9.50033 10.4414 9.08887C10.5117 8.56579 10.6665 8.09339 11.0459 7.71387C11.4254 7.3344 11.8979 7.17974 12.4209 7.10938C12.9165 7.04274 13.5413 7.04295 14.29 7.04297H17.71ZM12.667 14.959C11.6801 14.959 10.9843 14.9604 10.4453 15.0127C9.91604 15.064 9.60375 15.1601 9.36426 15.3105C9.07275 15.4937 8.82575 15.7407 8.64258 16.0322C8.49226 16.2717 8.39603 16.5842 8.34473 17.1133C8.29248 17.6522 8.29199 18.3474 8.29199 19.334C8.29199 20.3209 8.29245 21.0166 8.34473 21.5557C8.39605 22.0848 8.49218 22.3972 8.64258 22.6367C8.82575 22.9282 9.07275 23.1752 9.36426 23.3584C9.60373 23.5088 9.91613 23.6049 10.4453 23.6563C10.9843 23.7085 11.6801 23.709 12.667 23.709H19.333C20.3199 23.709 21.0157 23.7085 21.5547 23.6563C22.0839 23.6049 22.3963 23.5088 22.6357 23.3584C22.9273 23.1752 23.1743 22.9282 23.3574 22.6367C23.5078 22.3972 23.6039 22.0848 23.6553 21.5557C23.7075 21.0166 23.708 20.3209 23.708 19.334C23.708 18.3474 23.7075 17.6522 23.6553 17.1133C23.604 16.5842 23.5077 16.2717 23.3574 16.0322C23.1743 15.7407 22.9273 15.4937 22.6357 15.3105C22.3963 15.1601 22.084 15.064 21.5547 15.0127C21.0157 14.9604 20.3199 14.959 19.333 14.959H12.667ZM18.5 17.043C18.8452 17.043 19.125 17.3228 19.125 17.668C19.1248 18.9335 18.0986 19.959 16.833 19.959H15.167C13.9014 19.959 12.8752 18.9335 12.875 17.668C12.875 17.3228 13.1548 17.043 13.5 17.043C13.8452 17.043 14.125 17.3228 14.125 17.668C14.1252 18.2431 14.5918 18.709 15.167 18.709H16.833C17.4082 18.709 17.8748 18.2431 17.875 17.668C17.875 17.3228 18.1548 17.043 18.5 17.043ZM12.667 11.626C12.0735 11.626 11.6656 11.6266 11.3496 11.6523C11.041 11.6776 10.8749 11.724 10.7549 11.7852C10.4806 11.9249 10.257 12.1476 10.1172 12.4219C10.056 12.5419 10.0096 12.708 9.98438 13.0166C9.9669 13.2304 9.96193 13.4865 9.95996 13.8135C10.0778 13.7951 10.1992 13.7807 10.3242 13.7686C10.9306 13.7097 11.687 13.709 12.6338 13.709H19.3662C20.313 13.709 21.0694 13.7097 21.6758 13.7686C21.8005 13.7807 21.9215 13.7952 22.0391 13.8135C22.0371 13.4865 22.0331 13.2304 22.0156 13.0166C21.9904 12.708 21.944 12.5419 21.8828 12.4219C21.743 12.1476 21.5194 11.9249 21.2451 11.7852C21.1251 11.724 20.959 11.6776 20.6504 11.6523C20.3344 11.6266 19.9265 11.626 19.333 11.626H12.667ZM14.333 8.29297C13.5299 8.29297 12.9904 8.29356 12.5879 8.34766C12.2033 8.39936 12.0383 8.48906 11.9297 8.59766C11.8212 8.70626 11.7323 8.8715 11.6807 9.25586C11.6417 9.54568 11.6323 9.90656 11.6289 10.3857C11.9219 10.376 12.2575 10.376 12.6406 10.376H19.3594C19.7421 10.376 20.0774 10.3761 20.3701 10.3857C20.3667 9.90656 20.3583 9.54568 20.3193 9.25586C20.2677 8.8715 20.1788 8.70626 20.0703 8.59766C19.9617 8.48906 19.7967 8.39936 19.4121 8.34766C19.0096 8.29356 18.4701 8.29297 17.667 8.29297H14.333Z" fill="#067647"/>
</svg>
