<svg width="32" height="32" viewBox="0 0 32 32" fill="none" xmlns="http://www.w3.org/2000/svg">
<path d="M0 16C0 7.16344 7.16344 0 16 0C24.8366 0 32 7.16344 32 16C32 24.8366 24.8366 32 16 32C7.16344 32 0 24.8366 0 16Z" fill="#F3FCF6"/>
<path d="M18.1709 9.11326C19.5033 8.47412 20.3077 8.08805 21.2568 8.40721C22.2174 8.72975 22.5533 9.43442 23.0615 10.501C24.4757 13.4668 24.4757 16.8691 23.0615 19.8349C22.5532 20.9016 22.2176 21.6072 21.2568 21.9297C21.0235 22.008 20.7991 22.0429 20.5732 22.0429V22.0449C19.8799 22.0449 19.1757 21.7071 18.1699 21.2246L17.4561 20.8818C17.4541 21.8738 17.4342 22.4065 17.1787 22.8203C16.8329 23.3794 16.2335 23.7089 15.5869 23.709H15.5859C15.5293 23.709 15.4716 23.7071 15.4141 23.7021C14.8849 23.6546 14.4095 23.2988 13.4629 22.5888L12.458 21.834C11.4883 21.1066 11.208 20.5455 11.208 19.334V18.5556C11.146 18.5669 11.0915 18.5779 11.0371 18.584C10.2222 18.6773 9.45361 18.4457 8.87695 17.9316C8.24029 17.3641 7.875 16.4955 7.875 15.5488V14.789C7.87505 13.8425 8.24037 12.9747 8.87695 12.4072C9.45362 11.893 10.2217 11.6607 11.04 11.7549C11.1941 11.7715 11.3582 11.8085 11.6846 11.8818C12.0095 11.9551 12.3268 11.9197 12.626 11.7763L18.168 9.11424L18.4395 9.67771L18.1709 9.11326ZM12.458 19.334C12.458 20.1571 12.5492 20.34 13.208 20.834L14.208 21.584C14.8236 22.0454 15.3503 22.4409 15.5264 22.457C15.7638 22.4787 15.9902 22.3663 16.1152 22.1631C16.2086 22.0122 16.208 21.3498 16.208 20.584V20.2822L12.625 18.5615C12.5701 18.5353 12.5141 18.5141 12.458 18.4951V19.334ZM20.8584 9.5908C20.4126 9.4408 19.9584 9.64094 18.7109 10.2392L18.4385 9.67674L18.709 10.2402L13.166 12.9013C13.0709 12.947 12.9731 12.9847 12.875 13.0185V17.3154C12.9734 17.3492 13.0707 17.3891 13.166 17.4345L18.71 20.0957C19.9591 20.6948 20.4134 20.8951 20.8584 20.7451C21.2975 20.5976 21.4553 20.3019 21.9336 19.2978C23.1844 16.6737 23.1844 13.6622 21.9336 11.0381C21.4553 10.034 21.2975 9.73829 20.8584 9.5908ZM10.9004 12.9961C10.4247 12.942 10.0237 13.0573 9.70801 13.3388C9.33748 13.6696 9.12509 14.1976 9.125 14.7881V15.5488C9.12509 16.1393 9.33747 16.6672 9.70801 16.998C10.0238 17.2797 10.4241 17.3949 10.8965 17.3408C10.9882 17.3308 11.1477 17.2955 11.4102 17.2363C11.4817 17.2201 11.5534 17.2075 11.625 17.1972V13.1387C11.5537 13.1285 11.4823 13.1164 11.4111 13.1006C11.1478 13.0414 10.9887 13.0052 10.9004 12.9961Z" fill="#067647"/>
</svg>
