<svg width="16" height="16" viewBox="0 0 16 16" fill="none" xmlns="http://www.w3.org/2000/svg">
<path fill-rule="evenodd" clip-rule="evenodd" d="M8.05834 0.833984C7.77167 0.833984 7.53834 0.953994 7.33834 1.09399C7.165 1.22733 6.97167 1.41401 6.75834 1.61401L5.27834 3.04069C5.06501 3.24736 4.88501 3.41404 4.75834 3.56071C4.63167 3.69404 4.49167 3.86732 4.43167 4.08732C4.29834 4.59399 4.53168 5.12069 4.97834 5.37402C5.05168 5.42069 5.13168 5.44737 5.21168 5.46737L4.43834 6.24731C4.18501 6.50065 3.96501 6.72064 3.81168 6.90731C3.67168 7.08064 3.50501 7.30732 3.47834 7.58732C3.44501 7.98065 3.61167 8.36067 3.92501 8.60067C4.11167 8.74733 4.34501 8.80064 4.55168 8.82731L3.94501 9.55404C3.57834 10.0007 3.27167 10.374 3.07834 10.6873C2.89167 11.0007 2.71834 11.414 2.93167 11.8473C3.13834 12.274 3.57168 12.394 3.93834 12.4473C4.30501 12.5007 4.79834 12.5007 5.39167 12.5007H7.33167V14.5007C7.33167 14.8673 7.63167 15.1673 7.99834 15.1673C8.36501 15.1673 8.66501 14.8673 8.66501 14.5007V12.5007H10.485C11.1183 12.5007 11.645 12.5007 12.0383 12.4473C12.4183 12.394 12.8717 12.2673 13.0783 11.814C13.2917 11.354 13.0783 10.9273 12.8583 10.614C12.6383 10.3007 12.2783 9.9207 11.8583 9.46737L11.245 8.82064C11.505 8.79397 11.805 8.72065 12.025 8.50065C12.2117 8.31398 12.325 8.07396 12.3517 7.81396C12.3917 7.47396 12.225 7.18737 12.0717 6.97404C11.9117 6.75404 11.6783 6.48732 11.405 6.17399L10.7983 5.4873C10.905 5.4673 11.0183 5.42735 11.1183 5.36735C11.5583 5.11402 11.785 4.60067 11.6583 4.10067C11.605 3.88067 11.4583 3.70071 11.3383 3.56071C11.205 3.42071 11.025 3.24068 10.8117 3.03402L9.35167 1.62069C9.14501 1.41402 8.95167 1.22733 8.77834 1.10067C8.57834 0.954001 8.35167 0.833984 8.05834 0.833984Z" fill="white"/>
</svg>
