<svg width="32" height="32" viewBox="0 0 32 32" fill="none" xmlns="http://www.w3.org/2000/svg">
<path fill-rule="evenodd" clip-rule="evenodd" d="M16.2956 7.04122C16.6044 7.04205 16.8739 7.04619 17.1057 7.06691C17.4133 7.09442 17.6999 7.15397 17.9785 7.29849C18.0886 7.3556 18.1938 7.42155 18.2932 7.49569C18.5447 7.68331 18.7234 7.91532 18.8823 8.18008C19.0321 8.4295 19.1841 8.74321 19.3632 9.11277L19.7728 9.95768H23.5C23.8452 9.95768 24.125 10.2375 24.125 10.5827C24.125 10.9279 23.8452 11.2077 23.5 11.2077H22.8376L22.3554 19.0078C22.2911 20.0477 22.2401 20.8728 22.1356 21.532C22.0283 22.208 21.8567 22.771 21.5133 23.2634C21.1992 23.7138 20.7947 24.0941 20.3257 24.3798C19.8132 24.6921 19.2407 24.8287 18.5593 24.894C17.895 24.9577 17.0682 24.9577 16.0263 24.9577H15.9616L15.6217 24.9576C14.7364 24.9569 14.0166 24.9506 13.4253 24.8939C12.7432 24.8284 12.1701 24.6916 11.6571 24.3788C11.1878 24.0925 10.7833 23.7116 10.4693 23.2604C10.126 22.7672 9.95489 22.2034 9.84847 21.5264C9.74468 20.8663 9.69481 20.04 9.63194 18.9986L9.16161 11.2077H8.5C8.15483 11.2077 7.875 10.9279 7.875 10.5827C7.875 10.2375 8.15483 9.95768 8.5 9.95768H12.3103L12.6595 9.19163L12.7613 8.96878C12.8933 8.68113 13.0117 8.43177 13.1297 8.22496C13.2862 7.95062 13.4642 7.70975 13.7188 7.51444C13.8193 7.43736 13.926 7.36873 14.0378 7.30928C14.3211 7.15863 14.6141 7.09662 14.9286 7.06798C15.225 7.04102 15.5822 7.04102 16.0032 7.04102L16.2956 7.04122ZM21.5852 11.2077H10.4139L10.8777 18.891C10.943 19.9718 10.9899 20.7383 11.0833 21.3323C11.1751 21.9163 11.3037 22.2711 11.4953 22.5464C11.7101 22.8551 11.9869 23.1157 12.308 23.3116C12.5944 23.4862 12.9563 23.5932 13.5447 23.6496C14.1432 23.707 14.9112 23.7077 15.994 23.7077C17.0754 23.7077 17.8423 23.707 18.44 23.6498C19.0277 23.5933 19.3892 23.4867 19.6754 23.3123C19.9963 23.1168 20.2731 22.8567 20.488 22.5484C20.6797 22.2736 20.8085 21.9193 20.901 21.3362C20.9951 20.7431 21.0431 19.9778 21.1097 18.8983L21.5852 11.2077ZM16.3758 8.2916L15.7165 8.29144C15.4292 8.2926 15.2167 8.29692 15.0419 8.31283C14.8207 8.33297 14.7082 8.3685 14.6247 8.41296C14.5738 8.43998 14.5253 8.47117 14.4797 8.50621C14.4045 8.56384 14.3255 8.65146 14.2154 8.84441C14.0995 9.04767 13.9745 9.32037 13.7857 9.73463L13.684 9.95768H18.3837L18.2499 9.68175C18.0562 9.28207 17.9281 9.0192 17.8106 8.82338C17.6991 8.63758 17.6202 8.55317 17.5459 8.49769C17.5007 8.46398 17.4528 8.43401 17.4028 8.40805C17.3204 8.36532 17.2102 8.33124 16.9943 8.31194C16.8318 8.29741 16.6362 8.29296 16.3758 8.2916Z" fill="#D92D20"/>
</svg>
