<svg width="15" height="13" viewBox="0 0 15 13" fill="none" xmlns="http://www.w3.org/2000/svg">
<path fill-rule="evenodd" clip-rule="evenodd" d="M7.13333 0H7.2C7.8 0 8.3 5.20845e-05 8.69333 0.0533854C9.11333 0.106719 9.48667 0.233372 9.79333 0.540039C10.1 0.840039 10.22 1.21997 10.28 1.63997C10.32 1.92664 10.3267 2.27334 10.3333 2.67334C10.74 2.68001 11.0933 2.69339 11.4067 2.72673C12 2.78673 12.4933 2.91337 12.9267 3.20003C13.2733 3.43337 13.5667 3.72674 13.8 4.07341C14.0867 4.50674 14.2133 5.00009 14.2733 5.59342C14.3333 6.16676 14.3333 6.89331 14.3333 7.80664V7.86003C14.3333 8.77336 14.3333 9.50007 14.2733 10.0734C14.2133 10.6667 14.0867 11.1601 13.8 11.5934C13.5667 11.9401 13.2733 12.2333 12.9267 12.4666C12.4933 12.7533 12 12.8799 11.4067 12.9399C10.8267 12.9999 10.1067 13 9.19333 13H5.14C4.22667 13 3.50667 12.9999 2.92667 12.9399C2.33333 12.8799 1.84 12.7533 1.40667 12.4666C1.06 12.2333 0.766666 11.9401 0.533333 11.5934C0.246666 11.1601 0.12 10.6667 0.0600001 10.0734C9.93411e-08 9.50007 0 8.77336 0 7.86003V7.80664C0 6.89331 9.93411e-08 6.16676 0.0600001 5.59342C0.12 5.00009 0.246666 4.50674 0.533333 4.07341C0.766666 3.72674 1.06 3.43337 1.40667 3.20003C1.84 2.91337 2.33333 2.78673 2.92667 2.72673C3.24 2.69339 3.59333 2.68001 4 2.67334C4 2.27334 4.01333 1.92664 4.05333 1.63997C4.10667 1.21997 4.23333 0.840039 4.54 0.540039C4.84667 0.233372 5.22 0.106719 5.64 0.0533854C6.03333 5.20845e-05 6.53333 0 7.13333 0ZM9.28667 1.77327C9.32 1.99994 9.32667 2.28667 9.32667 2.66667H4.99333C4.99333 2.28667 5.00667 1.99994 5.03333 1.77327C5.07333 1.45994 5.14667 1.33341 5.23333 1.24674C5.32 1.16008 5.45333 1.08671 5.76 1.04671C6.08 1.00005 6.51333 1 7.15333 1C7.79333 1 8.22667 1.00005 8.54667 1.04671C8.85333 1.08671 8.98667 1.16008 9.07333 1.24674C9.16 1.33341 9.23333 1.45994 9.27333 1.77327H9.28667ZM3.02667 3.72005C2.51333 3.77339 2.20667 3.87337 1.96 4.03337C1.72667 4.1867 1.52 4.39329 1.36 4.62663C1.2 4.87329 1.1 5.18003 1.04667 5.69336C0.993333 6.21336 0.993333 6.88667 0.993333 7.83333C0.993333 8.78 0.993333 9.45331 1.04667 9.97331C1.1 10.4866 1.2 10.7934 1.36 11.04C1.52 11.2734 1.72 11.48 1.96 11.6333C2.2 11.7933 2.51333 11.8933 3.02667 11.9466C3.54667 11.9999 4.22 12 5.16667 12H9.16667C10.1133 12 10.7867 11.9999 11.3067 11.9466C11.82 11.8933 12.1267 11.7933 12.3733 11.6333C12.6067 11.48 12.8133 11.2734 12.9733 11.04C13.1333 10.7934 13.2333 10.4866 13.2867 9.97331C13.34 9.45331 13.34 8.78 13.34 7.83333C13.34 6.88667 13.34 6.21336 13.2867 5.69336C13.2333 5.18003 13.1333 4.87329 12.9733 4.62663C12.8133 4.39329 12.6133 4.1867 12.3733 4.03337C12.1333 3.87337 11.82 3.77339 11.3067 3.72005C10.7867 3.66672 10.1133 3.66667 9.16667 3.66667H5.16667C4.22 3.66667 3.54667 3.66672 3.02667 3.72005ZM3.31333 5.35335C3.04667 5.27335 2.76667 5.42002 2.68667 5.68669C2.60667 5.94669 2.75333 6.22665 3.01333 6.31331L3.44667 6.44661C4.48 6.76661 5.56667 6.94666 6.66 6.99333V7.83333C6.66 8.10667 6.88667 8.33333 7.16 8.33333C7.43333 8.33333 7.66 8.10667 7.66 7.83333V6.99333C8.75333 6.94666 9.84 6.76661 10.8733 6.44661L11.3067 6.31331C11.5733 6.22665 11.72 5.94669 11.6333 5.68669C11.5533 5.42002 11.2733 5.27335 11.0067 5.35335L10.5733 5.49333C8.38 6.16666 5.93333 6.16666 3.74 5.49333L3.30667 5.35335H3.31333Z" fill="#0E5F4A"/>
</svg>
